# xmcd CD database file
#
# Track frame offsets:
#	150
#	7982
#	28606
#	43754
#	67309
#	85359
#	103579
#	122704
#	150185
#	167211
#	193121
#	203851
#	222781
#	242257
#
# Disc length: 3506 seconds
#
# Revision: 0
# Processed by: cddbd v1.5.1PL2 Copyright (c) Steve Scherf et al.
# Submitted via: CDex 1.51
#
DISCID=b80db00e
DTITLE=DISBELIEF - 66 Sick
DYEAR=1900
DGENRE=Rap
TTITLE0=66
TTITLE1=Sick
TTITLE2=Floating On High
TTITLE3=For God?
TTITLE4=Continue(From This Point)
TTITLE5=Crawl
TTITLE6=Rewind It All(Death Or Glory)
TTITLE7=Lost In Time
TTITLE8=Try
TTITLE9=Edges
TTITLE10=Mental Signpost
TTITLE11=To Atone For All
TTITLE12=Genocide Amen
TTITLE13=Choice
EXTD=
EXTT0=
EXTT1=
EXTT2=
EXTT3=
EXTT4=
EXTT5=
EXTT6=
EXTT7=
EXTT8=
EXTT9=
EXTT10=
EXTT11=
EXTT12=
EXTT13=
PLAYORDER=
